<?xml version="1.0" encoding="utf-8"?>
<!-- Generator: Adobe Illustrator 27.4.0, SVG Export Plug-In . SVG Version: 6.00 Build 0)  -->
<svg version="1.1" id="Layer_1" xmlns="http://www.w3.org/2000/svg" xmlns:xlink="http://www.w3.org/1999/xlink" x="0px" y="0px"
	 viewBox="0 0 1920 1080" style="enable-background:new 0 0 1920 1080;" xml:space="preserve">
<style type="text/css">
	.st0{fill:#FFFFFF;}
</style>
<g>
	<polygon points="1068.32,271.6 864.02,631.38 805.04,733.66 746.06,631.38 692.22,538.22 742.33,451.49 794.24,361.54 
		805.04,342.78 846.16,271.6 955.25,82.59 1490.03,82.59 1651.03,361.54 1429,361.54 1377.09,271.6 	"/>
	<polygon points="1487.85,997.58 1049.17,997.58 1157.75,809.6 1158.91,807.67 1377.09,807.67 1478.85,631.38 1260.67,631.38 
		1313.35,540.15 1262.21,451.49 1702.94,451.49 1753.06,538.22 	"/>
	<polygon points="166.94,540.15 431,82.59 852.45,82.59 743.36,271.6 540.73,271.6 385.9,539.63 540.73,807.67 850.27,807.67 
		1112.78,348.44 1223.41,540.15 959.23,997.58 431,997.58 	"/>
</g>
</svg>
