<?xml version="1.0" encoding="utf-8"?>
<!-- Generator: Adobe Illustrator 27.4.0, SVG Export Plug-In . SVG Version: 6.00 Build 0)  -->
<svg version="1.1" id="Layer_1" xmlns="http://www.w3.org/2000/svg" xmlns:xlink="http://www.w3.org/1999/xlink" x="0px" y="0px"
	 viewBox="0 0 1586.11 914.99" style="enable-background:new 0 0 1586.11 914.99;" xml:space="preserve">
<style type="text/css">
	.st0{fill:#FFFFFF;}
</style>
<g>
	<polygon class="st0" points="901.37,189.01 697.07,548.79 638.09,651.07 579.12,548.79 525.28,455.63 575.39,368.9 627.3,278.96 
		638.09,260.2 679.21,189.01 788.3,0 1323.09,0 1484.09,278.96 1262.05,278.96 1210.14,189.01 	"/>
	<polygon class="st0" points="1320.9,914.99 882.23,914.99 990.81,727.01 991.96,725.08 1210.14,725.08 1311.91,548.79 
		1093.73,548.79 1146.41,457.56 1095.27,368.9 1536,368.9 1586.11,455.63 	"/>
	<polygon class="st0" points="0,457.56 264.05,0 685.51,0 576.42,189.01 373.78,189.01 218.95,457.05 373.78,725.08 683.32,725.08 
		945.83,265.85 1056.47,457.56 792.28,914.99 264.05,914.99 	"/>
</g>
</svg>
