<?xml version="1.0" encoding="utf-8"?>
<!-- Generator: Adobe Illustrator 27.3.1, SVG Export Plug-In . SVG Version: 6.00 Build 0)  -->
<svg version="1.1" id="Layer_1" xmlns="http://www.w3.org/2000/svg" xmlns:xlink="http://www.w3.org/1999/xlink" x="0px" y="0px"
	 viewBox="0 0 765.29 140.82" style="enable-background:new 0 0 765.29 140.82;" xml:space="preserve">
<style type="text/css">
	.st0{fill:#F94C57;}
	.st1{fill:#C2CAD7;}
	.st2{fill:#FFFFFF;}
	.st3{fill:#E75B5C;}
	.st4{fill:none;stroke:#000000;stroke-width:0.1;stroke-miterlimit:10;}
	.st5{fill:none;stroke:#000000;stroke-width:5;stroke-miterlimit:10;}
	.st6{fill:none;stroke:#F94C57;stroke-miterlimit:10;}
	.st7{fill:#F64F58;}
</style>
<g>
	<path d="M80.76,19.96L55.02,139.7H28.17L54.65,16.23h-2.24c-19.77,0-35.07,7.65-35.07,37.68c0,9.51,2.43,11,2.61,12.68
		C7.09,66.59,0,61.93,0,48.5C0,23.69,17.53,0,63.6,0c22.57,0,29.47,4.29,47.75,4.29c8.58,0,16.6-1.86,21.64-3.92
		c-0.37,16.23-8.39,23.69-23.31,23.69C100.53,24.06,90.84,22.2,80.76,19.96z"/>
	<path d="M174.21,46.44l-13.43,63.42c-0.56,2.43-0.75,4.29-0.75,5.97c0,5.22,2.43,6.9,7.65,6.9c7.27,0,12.31-7.09,15.11-16.41h7.83
		c-10.63,30.4-27.42,34.51-37.49,34.51c-10.63,0-17.35-6.16-18.46-17.72c-9.33,15.29-19.77,17.72-27.61,17.72
		c-11.19,0-19.96-6.71-19.96-22.38c0-3.54,0.56-7.65,1.49-12.12l12.68-59.87h26.86l-13.43,63.42c-0.37,1.86-0.56,3.54-0.56,5.22
		c0,4.29,1.49,7.65,5.6,7.65c7.27,0,12.12-7.09,14.92-16.41l12.68-59.87H174.21z"/>
	<path d="M229.79,62.67c-6.72,0-11.75,7.84-14.55,17.16l-12.68,59.87H175.7l19.77-93.26h26.86l-2.05,9.7
		c7.83-8.95,16.04-10.44,21.82-10.44c11.94,0,20.71,6.15,20.71,21.08c0,15.11-8.95,37.68-8.95,48.12c0,4.66,1.86,7.83,7.46,7.83
		c8.21,0,11.56-6.71,15.67-16.41h7.83c-10.44,30.59-24.81,34.51-34.69,34.51c-16.23,0-22.01-10.45-22.01-21.08
		c0-12.68,8.39-35.63,8.39-47.56C236.5,66.03,234.27,62.67,229.79,62.67z"/>
	<path d="M313.53,123.11c7.09,0,16.04-4.66,22.01-9.89c-3.92,21.26-17.35,27.6-32.27,27.6c-17.35,0-28.91-8.58-28.91-29.66
		c0-21.45,12.12-66.4,50.36-66.4c16.6,0,20.52,8.58,20.52,17.91c0,21.64-20.52,38.05-42.9,39.36c-0.19,1.86-0.37,3.92-0.37,5.59
		C301.97,119.37,307.01,123.11,313.53,123.11z M326.22,54.65c-9.33,0-18.65,20.71-22.57,38.42c14.55-0.75,27.23-15.11,27.23-30.78
		C330.88,57.64,329.76,54.65,326.22,54.65z"/>
	<path d="M467.6,19.96L441.86,139.7H415l26.49-123.48h-2.24c-19.77,0-35.07,7.65-35.07,37.68c0,9.51,2.43,11,2.61,12.68
		c-12.87,0-19.96-4.66-19.96-18.09c0-24.81,17.53-48.5,63.6-48.5c22.57,0,29.47,4.29,47.75,4.29c8.58,0,16.6-1.86,21.64-3.92
		c-0.37,16.23-8.39,23.69-23.31,23.69C487.37,24.06,477.68,22.2,467.6,19.96z"/>
	<path d="M547.8,74.61c0.75,0.37,1.49,0.37,2.05,0.37c8.58,0,20.7-5.59,28.72-11.19l1.68,5.04c-7.09,7.65-19.4,13.24-33.01,15.48
		c-2.98,34.51-21.64,56.14-44.58,56.14c-17.35,0-29.84-8.21-29.84-29.47c0-21.45,12.68-66.22,51.11-66.22
		C539.97,44.77,547.8,55.02,547.8,74.61z M531.76,84.87c-3.92-0.93-5.04-4.1-5.04-7.83c0-5.22,2.43-8.58,5.78-10.07
		c-0.37-7.83-2.24-10.82-7.09-10.82c-13.24,0-24.81,34.13-24.81,52.41c0,12.31,2.42,15.11,9.51,15.11
		C519.27,123.66,528.78,106.88,531.76,84.87z"/>
	<path d="M596.86,46.44l-13.43,63.42c-0.37,1.49-0.56,3.17-0.56,4.66c0,4.29,1.31,8.21,5.6,8.21c7.27,0,12.12-7.09,14.92-16.41
		l12.68-59.87h26.86l-13.43,63.42c-0.56,2.61-0.93,5.04-0.93,6.71c0,3.73,1.86,6.16,6.34,6.16c18.28,0,32.27-41.78,32.27-62.3
		c-0.56,1.3-4.48,1.86-5.97,1.86c-4.48,0-6.72-5.41-6.72-9.51c0-5.78,3.73-10.07,11.57-10.07c8.95,0,11.75,8.02,11.75,16.23
		c0,29.84-15.11,81.88-53.16,81.88c-12.12,0-20.14-5.22-22.38-15.67c-9.14,13.43-19.03,15.67-26.49,15.67
		c-11.19,0-19.96-6.71-19.96-22.38c0-3.54,0.56-7.65,1.49-12.12L570,46.44H596.86z"/>
	<path d="M727.61,62.67c-6.71,0-11.75,7.84-14.55,17.16l-12.68,59.87h-26.86l19.77-93.26h26.86l-2.05,9.7
		c7.83-8.95,16.04-10.44,21.82-10.44c11.94,0,20.71,6.15,20.71,21.08c0,15.11-8.95,37.68-8.95,48.12c0,4.66,1.86,7.83,7.46,7.83
		c3.17,0,5.04-0.37,6.16-1.12c-1.68,13.43-10.63,19.21-20.52,19.21c-14.36,0-18.84-10.45-18.84-21.08c0-12.68,8.39-35.63,8.39-47.56
		C734.32,66.03,732.09,62.67,727.61,62.67z"/>
</g>
</svg>
