<?xml version="1.0" encoding="utf-8"?>
<!-- Generator: Adobe Illustrator 27.3.1, SVG Export Plug-In . SVG Version: 6.00 Build 0)  -->
<svg version="1.1" id="Layer_1" xmlns="http://www.w3.org/2000/svg" xmlns:xlink="http://www.w3.org/1999/xlink" x="0px" y="0px"
	 viewBox="0 0 209.8 209.8" style="enable-background:new 0 0 209.8 209.8;" xml:space="preserve">
<style type="text/css">
	.st0{fill:#F94C57;}
	.st1{fill:#C2CAD7;}
	.st2{fill:#FFFFFF;}
	.st3{fill:#E75B5C;}
	.st4{fill:none;stroke:#000000;stroke-width:0.1;stroke-miterlimit:10;}
	.st5{fill:none;stroke:#000000;stroke-width:5;stroke-miterlimit:10;}
	.st6{fill:none;stroke:#F94C57;stroke-miterlimit:10;}
	.st7{fill:#F64F58;}
</style>
<g>
	<path d="M177.43,0H32.37C14.49,0,0,14.49,0,32.37v145.06c0,17.88,14.49,32.37,32.37,32.37h145.06c17.88,0,32.37-14.49,32.37-32.37
		V32.37C209.8,14.49,195.31,0,177.43,0z M98.73,64L78.6,84.13v68.89c0,12.03-9.78,21.81-21.81,21.81
		c-12.03,0-21.81-9.78-21.81-21.81s9.79-21.81,21.81-21.81c0.58,0,1.15,0.02,1.73,0.07v-27.06l-5.93,5.93
		c-1.68,1.68-3.92,2.61-6.31,2.61c-2.38,0-4.62-0.93-6.31-2.61l-1.59-1.59c-3.48-3.48-3.48-9.14,0-12.61L84.52,49.8
		c1.68-1.68,3.92-2.61,6.31-2.61c2.38,0,4.62,0.93,6.31,2.61l1.59,1.59C102.2,54.86,102.2,60.52,98.73,64z M172.23,96.14l-1.58,1.58
		c-1.68,1.68-3.91,2.6-6.29,2.6c-2.38,0-4.61-0.92-6.29-2.6l-5.91-5.91v48.65c0,11.99-9.75,21.74-21.74,21.74
		s-21.74-9.75-21.74-21.74c0-11.99,9.75-21.74,21.74-21.74c0.58,0,1.15,0.02,1.72,0.07V71.8l-20.07-20.07
		c-3.47-3.47-3.47-9.11,0-12.57l1.58-1.58c1.68-1.68,3.91-2.6,6.29-2.6c2.37,0,4.61,0.92,6.29,2.6l46,46
		C175.7,87.04,175.7,92.68,172.23,96.14z"/>
</g>
</svg>
