<?xml version="1.0" encoding="utf-8"?>
<!-- Generator: Adobe Illustrator 27.3.1, SVG Export Plug-In . SVG Version: 6.00 Build 0)  -->
<svg version="1.1" id="Layer_1" xmlns="http://www.w3.org/2000/svg" xmlns:xlink="http://www.w3.org/1999/xlink" x="0px" y="0px"
	 viewBox="0 0 992.12 207.15" style="enable-background:new 0 0 992.12 207.15;" xml:space="preserve">
<style type="text/css">
	.st0{fill:#F94C57;}
	.st1{fill:#C2CAD7;}
	.st2{fill:#FFFFFF;}
	.st3{fill:#E75B5C;}
	.st4{fill:none;stroke:#000000;stroke-width:0.1;stroke-miterlimit:10;}
	.st5{fill:none;stroke:#000000;stroke-width:5;stroke-miterlimit:10;}
	.st6{fill:none;stroke:#F94C57;stroke-miterlimit:10;}
	.st7{fill:#F64F58;}
</style>
<g>
	<g>
		<path d="M320.87,54.1l-25.24,117.42h-26.34l25.97-121.08h-2.2c-19.39,0-34.39,7.5-34.39,36.95c0,9.33,2.38,10.79,2.56,12.44
			c-12.62,0-19.57-4.57-19.57-17.74c0-24.33,17.19-47.56,62.37-47.56c22.13,0,28.9,4.21,46.82,4.21c8.41,0,16.28-1.83,21.22-3.84
			c-0.36,15.91-8.23,23.23-22.86,23.23C340.26,58.12,330.75,56.29,320.87,54.1z"/>
		<path d="M412.51,80.07l-13.17,62.19c-0.55,2.38-0.73,4.21-0.73,5.85c0,5.12,2.38,6.77,7.5,6.77c7.13,0,12.07-6.95,14.81-16.09
			h7.68c-10.42,29.81-26.89,33.84-36.76,33.84c-10.42,0-17.01-6.04-18.11-17.38c-9.15,15-19.39,17.38-27.07,17.38
			c-10.97,0-19.57-6.58-19.57-21.95c0-3.47,0.55-7.5,1.46-11.89l12.44-58.71h26.34l-13.17,62.19c-0.37,1.83-0.55,3.47-0.55,5.12
			c0,4.21,1.46,7.5,5.49,7.5c7.13,0,11.89-6.95,14.63-16.09l12.44-58.71H412.51z"/>
		<path d="M467.01,95.98c-6.59,0-11.52,7.68-14.27,16.83l-12.44,58.71h-26.34l19.39-91.45h26.34l-2.01,9.51
			c7.68-8.78,15.73-10.24,21.4-10.24c11.71,0,20.3,6.03,20.3,20.67c0,14.82-8.78,36.95-8.78,47.19c0,4.57,1.83,7.68,7.32,7.68
			c8.05,0,11.34-6.58,15.36-16.09h7.68c-10.24,30-24.33,33.84-34.02,33.84c-15.91,0-21.58-10.24-21.58-20.67
			c0-12.44,8.23-34.93,8.23-46.64C473.59,99.28,471.4,95.98,467.01,95.98z"/>
		<path d="M549.13,155.24c6.95,0,15.73-4.57,21.58-9.69c-3.84,20.85-17.01,27.07-31.64,27.07c-17.01,0-28.35-8.41-28.35-29.08
			c0-21.03,11.89-65.11,49.38-65.11c16.28,0,20.12,8.41,20.12,17.56c0,21.22-20.12,37.31-42.07,38.59
			c-0.18,1.83-0.37,3.84-0.37,5.49C537.79,151.59,542.73,155.24,549.13,155.24z M561.57,88.12c-9.15,0-18.29,20.3-22.13,37.68
			c14.27-0.73,26.7-14.82,26.7-30.18C566.14,91.05,565.04,88.12,561.57,88.12z"/>
		<path d="M700.21,54.1l-25.24,117.42h-26.34L674.6,50.44h-2.2c-19.39,0-34.39,7.5-34.39,36.95c0,9.33,2.38,10.79,2.56,12.44
			c-12.62,0-19.57-4.57-19.57-17.74c0-24.33,17.19-47.56,62.37-47.56c22.13,0,28.9,4.21,46.82,4.21c8.41,0,16.28-1.83,21.22-3.84
			c-0.36,15.91-8.23,23.23-22.86,23.23C719.6,58.12,710.09,56.29,700.21,54.1z"/>
		<path d="M778.85,107.69c0.73,0.37,1.46,0.37,2.01,0.37c8.41,0,20.3-5.49,28.17-10.97l1.65,4.94c-6.95,7.5-19.02,12.99-32.37,15.18
			c-2.93,33.84-21.22,55.05-43.71,55.05c-17.01,0-29.26-8.05-29.26-28.9c0-21.03,12.44-64.93,50.11-64.93
			C771.17,78.42,778.85,88.48,778.85,107.69z M763.12,117.75c-3.84-0.91-4.94-4.02-4.94-7.68c0-5.12,2.38-8.41,5.67-9.88
			c-0.37-7.68-2.2-10.61-6.95-10.61c-12.99,0-24.33,33.47-24.33,51.4c0,12.07,2.38,14.82,9.33,14.82
			C750.87,155.79,760.2,139.33,763.12,117.75z"/>
		<path d="M826.96,80.07l-13.17,62.19c-0.37,1.46-0.55,3.11-0.55,4.57c0,4.21,1.28,8.05,5.49,8.05c7.13,0,11.89-6.95,14.63-16.09
			l12.44-58.71h26.34l-13.17,62.19c-0.55,2.56-0.91,4.94-0.91,6.58c0,3.66,1.83,6.04,6.22,6.04c17.93,0,31.64-40.97,31.64-61.09
			c-0.55,1.28-4.39,1.83-5.85,1.83c-4.39,0-6.59-5.3-6.59-9.33c0-5.67,3.66-9.88,11.34-9.88c8.78,0,11.52,7.86,11.52,15.91
			c0,29.26-14.82,80.29-52.13,80.29c-11.89,0-19.75-5.12-21.95-15.36c-8.96,13.17-18.66,15.36-25.97,15.36
			c-10.97,0-19.57-6.58-19.57-21.95c0-3.47,0.55-7.5,1.46-11.89l12.44-58.71H826.96z"/>
		<path d="M955.17,95.98c-6.58,0-11.52,7.68-14.27,16.83l-12.44,58.71h-26.34l19.39-91.45h26.34l-2.01,9.51
			c7.68-8.78,15.73-10.24,21.4-10.24c11.71,0,20.3,6.03,20.3,20.67c0,14.82-8.78,36.95-8.78,47.19c0,4.57,1.83,7.68,7.32,7.68
			c3.11,0,4.94-0.37,6.04-1.1c-1.65,13.17-10.42,18.84-20.12,18.84c-14.08,0-18.47-10.24-18.47-20.67c0-12.44,8.23-34.93,8.23-46.64
			C961.76,99.28,959.56,95.98,955.17,95.98z"/>
	</g>
	<path d="M175.19,0H31.96C14.31,0,0,14.31,0,31.96v143.23c0,17.65,14.31,31.96,31.96,31.96h143.23c17.65,0,31.96-14.31,31.96-31.96
		V31.96C207.15,14.31,192.84,0,175.19,0z M97.48,63.19L77.6,83.07v68.02c0,11.88-9.66,21.54-21.54,21.54
		c-11.88,0-21.54-9.66-21.54-21.54c0-11.88,9.66-21.54,21.54-21.54c0.57,0,1.14,0.02,1.71,0.07V102.9l-5.85,5.85
		c-1.66,1.66-3.87,2.58-6.23,2.58c-2.35,0-4.56-0.92-6.23-2.58l-1.57-1.57c-3.43-3.43-3.43-9.02,0-12.45l45.56-45.56
		c1.66-1.66,3.87-2.58,6.23-2.58c2.35,0,4.56,0.92,6.23,2.58l1.57,1.57C100.91,54.17,100.91,59.76,97.48,63.19z M170.05,94.93
		l-1.56,1.56c-1.66,1.66-3.86,2.57-6.21,2.57c-2.35,0-4.55-0.91-6.21-2.57l-5.84-5.84v48.03c0,11.84-9.63,21.47-21.47,21.47
		c-11.84,0-21.47-9.63-21.47-21.47c0-11.84,9.63-21.47,21.47-21.47c0.57,0,1.14,0.02,1.7,0.07v-46.4l-19.81-19.81
		c-3.42-3.42-3.42-8.99,0-12.41l1.56-1.56c1.66-1.66,3.86-2.57,6.21-2.57c2.34,0,4.55,0.91,6.21,2.57l45.42,45.42
		C173.48,85.94,173.48,91.51,170.05,94.93z"/>
</g>
</svg>
